<?xml version="1.0" encoding="UTF-8" standalone="no"?>
<!-- Created with Inkscape (http://www.inkscape.org/) -->

<svg
   width="210mm"
   height="297mm"
   viewBox="0 0 210 297"
   version="1.1"
   id="svg1"
   inkscape:version="1.4 (e7c3feb100, 2024-10-09)"
   sodipodi:docname="drawing_v12.svg"
   inkscape:export-filename="drawing_v10.png"
   inkscape:export-xdpi="96"
   inkscape:export-ydpi="96"
   xmlns:inkscape="http://www.inkscape.org/namespaces/inkscape"
   xmlns:sodipodi="http://sodipodi.sourceforge.net/DTD/sodipodi-0.dtd"
   xmlns="http://www.w3.org/2000/svg"
   xmlns:svg="http://www.w3.org/2000/svg">
  <sodipodi:namedview
     id="namedview1"
     pagecolor="#ffffff"
     bordercolor="#000000"
     borderopacity="0.25"
     inkscape:showpageshadow="2"
     inkscape:pageopacity="0.0"
     inkscape:pagecheckerboard="0"
     inkscape:deskcolor="#d1d1d1"
     inkscape:document-units="mm"
     inkscape:zoom="1.4142136"
     inkscape:cx="311.83408"
     inkscape:cy="329.1582"
     inkscape:window-width="2560"
     inkscape:window-height="1363"
     inkscape:window-x="0"
     inkscape:window-y="40"
     inkscape:window-maximized="1"
     inkscape:current-layer="layer1"
     showgrid="false" />
  <defs
     id="defs1" />
  <g
     inkscape:label="Layer 1"
     inkscape:groupmode="layer"
     id="layer1">
    <path
       style="fill:#aaaaff;stroke:#000000;stroke-width:1.76389;stroke-dasharray:none"
       id="path1"
       sodipodi:type="arc"
       sodipodi:cx="106.54651"
       sodipodi:cy="129.82558"
       sodipodi:rx="80.965118"
       sodipodi:ry="80.965118"
       sodipodi:start="2.6179939"
       sodipodi:end="0.52359878"
       sodipodi:arc-type="arc"
       d="m 36.428659,170.30813 a 80.965118,80.965118 0 0 1 18.074476,-102.505433 80.965118,80.965118 0 0 1 104.086745,1e-6 80.965118,80.965118 0 0 1 18.07448,102.505442"
       sodipodi:open="true" />
    <rect
       style="fill:#ff0000;stroke:none;stroke-width:1.76389;stroke-dasharray:none"
       id="rect2"
       width="13.758333"
       height="5.7216144"
       x="24.793287"
       y="155.97974"
       transform="rotate(-23.271536)" />
    <path
       style="fill:#000000;fill-opacity:1;stroke:none;stroke-width:0.369071;stroke-dasharray:none"
       d="m 35.670049,169.063 141.756301,0.0223 8.7e-4,1.66836 -141.756598,-3.7e-4 z"
       id="path2"
       sodipodi:nodetypes="ccccc" />
    <path
       d="m 142.22802,114.03557 v 23.28457 m 8.7317,-17.46342 V 131.499 m 8.99673,-29.10571 v 46.56912 m 8.73173,-32.01627 v 17.46341 m 8.73171,-11.64226 v 5.82113"
       stroke="#000000"
       stroke-width="4.36586"
       stroke-linecap="round"
       stroke-linejoin="round"
       id="path1-6"
       sodipodi:nodetypes="cccccccccc" />
    <g
       id="g2-1-4"
       transform="matrix(0.08641186,-0.08942507,0.08399187,0.09020847,6.992375,88.514475)"
       style="fill:#ff0000;stroke:#000000;stroke-width:21.0178;stroke-dasharray:none">
      <path
         class="st0"
         d="m 238.301,346.393 c 0.598,3.938 2.563,7.725 5.903,11.359 3.313,3.626 7.252,5.447 11.796,5.447 10.592,0 16.486,-5.608 17.691,-16.806 L 309.089,74.413 C 309.696,69.59 310,62.777 310,53.998 310,40.38 305.321,27.985 295.935,16.778 286.558,5.59 273.244,0 255.999,0 238.131,0 224.682,5.742 215.61,17.226 206.537,28.432 202,40.685 202,53.999 c 0,8.172 0.285,14.976 0.892,20.415 z"
         id="path1-2-7"
         style="fill:#ff0000;stroke:#000000;stroke-width:21.0178;stroke-dasharray:none" />
      <path
         class="st0"
         d="m 295.033,418.065 c -10.288,-10.287 -23.307,-15.44 -39.034,-15.44 -15.422,0 -28.441,5.314 -39.032,15.896 -10.591,10.591 -15.877,23.441 -15.877,38.569 0,14.52 5.286,27.379 15.877,38.577 10.591,10.895 23.611,16.333 39.032,16.333 15.423,0 28.424,-5.286 39.034,-15.886 10.574,-10.574 15.877,-23.593 15.877,-39.024 0,-15.432 -5.303,-28.434 -15.877,-39.025 z"
         id="path2-9-8"
         style="fill:#ff0000;stroke:#000000;stroke-width:21.0178;stroke-dasharray:none" />
    </g>
    <g
       id="g2-1-3"
       transform="matrix(0.19486194,0.04947721,-0.04487097,0.18366741,65.698842,-4.0520577)"
       style="fill:#ff0000;stroke:#000000;stroke-width:12.8696;stroke-dasharray:none">
      <path
         class="st0"
         d="m 238.301,346.393 c 0.598,3.938 2.563,7.725 5.903,11.359 3.313,3.626 7.252,5.447 11.796,5.447 10.592,0 16.486,-5.608 17.691,-16.806 L 309.089,74.413 C 309.696,69.59 310,62.777 310,53.998 310,40.38 305.321,27.985 295.935,16.778 286.558,5.59 273.244,0 255.999,0 238.131,0 224.682,5.742 215.61,17.226 206.537,28.432 202,40.685 202,53.999 c 0,8.172 0.285,14.976 0.892,20.415 z"
         id="path1-2-6"
         style="fill:#ff0000;stroke:#000000;stroke-width:12.8696;stroke-dasharray:none" />
      <path
         class="st0"
         d="m 295.033,418.065 c -10.288,-10.287 -23.307,-15.44 -39.034,-15.44 -15.422,0 -28.441,5.314 -39.032,15.896 -10.591,10.591 -15.877,23.441 -15.877,38.569 0,14.52 5.286,27.379 15.877,38.577 10.591,10.895 23.611,16.333 39.032,16.333 15.423,0 28.424,-5.286 39.034,-15.886 10.574,-10.574 15.877,-23.593 15.877,-39.024 0,-15.432 -5.303,-28.434 -15.877,-39.025 z"
         id="path2-9-1"
         style="fill:#ff0000;stroke:#000000;stroke-width:12.8696;stroke-dasharray:none" />
    </g>
    <path
       d="m 76.187881,133.58169 -28.760403,17.44824 c -0.177369,1.2882 -0.259169,2.38727 -0.239809,3.35673 -6.570532,0.0313 -13.97315,7.12676 -12.136508,13.50167 2.186182,3.22001 4.22756,2.61255 6.007624,2.47406 0.212442,-3.94388 -0.03182,-8.6985 9.201805,-9.37986 0.552921,0.52957 1.180454,1.07209 1.894013,1.66389 l 34.89482,-11.53601 -1.690554,0.50766 C 77.442204,148.12732 74.400126,141.47648 76.186803,133.58445 Z M 107.052,110.61299 c -3.75272,1.94158 -6.84695,5.1926 -8.52846,9.41773 v 0 l -20.499458,12.43719 c -2.087102,8.15788 0.909106,15.05852 9.026412,18.63978 l 22.089836,-7.30123 c 4.94636,1.81767 10.19332,1.34684 14.55835,-0.89264 l -0.24378,0.10297 c -8.23433,-3.44432 -14.2956,-8.29251 -16.64716,-15.6532 -1.45043,-4.54004 -1.48956,-10.03597 0.24319,-16.74788 z m 14.91064,-0.80712 c -4.41186,-1.70928 -9.08111,-1.57844 -13.16523,0.0182 -4.55255,17.53882 2.97549,26.78447 16.17309,32.37219 3.24622,-2.00722 5.8866,-5.04866 7.37162,-8.8817 l 0.002,-0.005 c 3.62114,-9.3568 -1.02614,-19.87849 -10.38272,-23.50031 z"
       id="path1-7"
       style="stroke-width:2.97013"
       sodipodi:nodetypes="ccccccccccccsccccccscccccsscc" />
    <rect
       style="fill:#ff0000;stroke:none;stroke-width:1.76389;stroke-dasharray:none"
       id="rect2-6"
       width="13.758333"
       height="5.7216144"
       x="24.665987"
       y="160.46123"
       transform="rotate(-23.271536)" />
  </g>
</svg>
